# File created by Blade
# Date/Time:  Tue Apr 07 21:25:43 2015
#---------------------------------------------------------
:version 1.10
:name HOM
:units
  mass 1.0
  length 1.000000
  angle deg
:documentation
     Acclaim Skeleton File
:root
   axis xyz
   order TX TY TZ RX RY RZ
   position 0.000000 0.000000 0.000000
   orientation 0 0 0
:bonedata
   begin
      id 1
      name Spine_dum
      direction 0.000000 1.000000 0.000000
      length 4.885285
      axis 0.0 0.0 0.0 xyz
   end
   begin
      id 2
      name LeftUpLeg_dum
      direction 1.000000 0.000000 0.000000
      length 2.672193
      axis 0.0 0.0 0.0 xyz
   end
   begin
      id 3
      name RightUpLeg_dum
      direction -1.000000 0.000000 0.000000
      length 2.672193
      axis 0.0 0.0 0.0 xyz
   end
   begin
      id 4
      name Spine
      direction 0.000000 1.000000 0.000000
      length 0.000000
      axis 0.0 0.0 0.0 xyz
      dof rx ry rz
   end
   begin
      id 5
      name Spine_dum1
      direction 0.000000 1.000000 0.000000
      length 16.494159
      axis 0.0 0.0 0.0 xyz
   end
   begin
      id 6
      name Spine_dum2
      direction 0.000000 1.000000 0.000000
      length 10.663448
      axis 0.0 0.0 0.0 xyz
   end
   begin
      id 7
      name Spine_dum3
      direction 0.000000 1.000000 0.000000
      length 10.663448
      axis 0.0 0.0 0.0 xyz
   end
   begin
      id 8
      name Head
      direction 0.000000 1.000000 0.000000
      length 4.527550
      axis 0.0 0.0 0.0 xyz
      dof rx ry rz
   end
   begin
      id 9
      name LeftShoulder
      direction 1.000000 0.000000 0.000000
      length 7.531907
      axis 0.0 0.0 -90.0 xyz
      dof rx ry rz
   end
   begin
      id 10
      name LeftArm
      direction 1.000000 0.000000 0.000000
      length 10.229199
      axis 0.0 0.0 -90.0 xyz
      dof rx ry rz
   end
   begin
      id 11
      name LeftForeArm
      direction 1.000000 0.000000 0.000000
      length 8.673495
      axis 0.0 0.0 -90.0 xyz
      dof ry rz rx
   end
   begin
      id 12
      name LeftHand
      direction 0.000000 0.000000 0.000000
      length 0.000000
      axis 0.0 0.0 -90.0 xyz
      dof rx ry rz
   end
   begin
      id 13
      name LeftHand_dum1
      direction 0.000000 0.000000 0.000000
      length 0.000000
      axis 0.0 0.0 -90.0 xyz
   end
   begin
      id 14
      name LeftHand_dum2
      direction 1.000000 0.000000 0.000000
      length 3.937000
      axis 0.0 0.0 -90.0 xyz
   end
   begin
      id 15
      name LeftHandThumb1
      direction 0.000000 0.000000 1.000000
      length 3.937000
      axis 0.0 0.0 -90.0 xyz
      dof rx rz ry
   end
   begin
      id 16
      name RightShoulder
      direction -1.000000 0.000000 0.000000
      length 7.531907
      axis 0.0 0.0 90.0 xyz
      dof rx ry rz
   end
   begin
      id 17
      name RightArm
      direction -1.000000 0.000000 0.000000
      length 10.229199
      axis 0.0 0.0 90.0 xyz
      dof rx ry rz
   end
   begin
      id 18
      name RightForeArm
      direction -1.000000 0.000000 0.000000
      length 8.673495
      axis 0.0 0.0 90.0 xyz
      dof ry rz rx
   end
   begin
      id 19
      name RightHand
      direction 0.000000 0.000000 0.000000
      length 0.000000
      axis 0.0 0.0 90.0 xyz
      dof rx ry rz
   end
   begin
      id 20
      name RightHand_dum1
      direction 0.000000 0.000000 0.000000
      length 0.000000
      axis 0.0 0.0 90.0 xyz
   end
   begin
      id 21
      name RightHand_dum2
      direction -1.000000 0.000000 0.000000
      length 3.937000
      axis 0.0 0.0 90.0 xyz
   end
   begin
      id 22
      name RightHandThumb1
      direction 0.000000 0.000000 1.000000
      length 3.937000
      axis 0.0 0.0 90.0 xyz
      dof rx rz ry
   end
   begin
      id 23
      name LeftUpLeg
      direction 0.000000 -1.000000 0.000000
      length 16.263388
      axis 0.0 0.0 0.0 xyz
      dof rx ry rz
   end
   begin
      id 24
      name LeftLeg
      direction 0.000000 -1.000000 0.000000
      length 14.328163
      axis 0.0 0.0 0.0 xyz
      dof rx ry rz
   end
   begin
      id 25
      name LeftFoot
      direction 0.000000 -0.258819 0.965926
      length 5.031290
      axis 15.0 0.0 0.0 xyz
      dof rx ry rz
   end
   begin
      id 26
      name LeftToeBase
      direction 0.000000 0.000000 1.000000
      length 2.952750
      axis 0.0 0.0 0.0 xyz
      dof rx ry rz
   end
   begin
      id 27
      name RightUpLeg
      direction 0.000000 -1.000000 0.000000
      length 16.263388
      axis 0.0 0.0 0.0 xyz
      dof rx ry rz
   end
   begin
      id 28
      name RightLeg
      direction 0.000000 -1.000000 0.000000
      length 14.328163
      axis 0.0 0.0 0.0 xyz
      dof rx ry rz
   end
   begin
      id 29
      name RightFoot
      direction 0.000000 -0.258819 0.965926
      length 5.031290
      axis 15.0 0.0 0.0 xyz
      dof rx ry rz
   end
   begin
      id 30
      name RightToeBase
      direction 0.000000 0.000000 1.000000
      length 2.952750
      axis 0.0 0.0 0.0 xyz
      dof rx ry rz
   end
:hierarchy
   begin
      root Spine_dum LeftUpLeg_dum RightUpLeg_dum
      Spine_dum Spine
      LeftUpLeg_dum LeftUpLeg
      RightUpLeg_dum RightUpLeg
      Spine Spine_dum1 Spine_dum2 Spine_dum3
      Spine_dum1 Head
      Spine_dum2 LeftShoulder
      Spine_dum3 RightShoulder
      LeftShoulder LeftArm
      LeftArm LeftForeArm
      LeftForeArm LeftHand
      LeftHand LeftHand_dum1 LeftHand_dum2
      LeftHand_dum1 LeftHandThumb1
      RightShoulder RightArm
      RightArm RightForeArm
      RightForeArm RightHand
      RightHand RightHand_dum1 RightHand_dum2
      RightHand_dum1 RightHandThumb1
      LeftUpLeg LeftLeg
      LeftLeg LeftFoot
      LeftFoot LeftToeBase
      RightUpLeg RightLeg
      RightLeg RightFoot
      RightFoot RightToeBase
   end

# File created by Blade
# Date/Time:  Tue Apr 07 21:25:57 2015
# Frame Rate: 120.000 fps
#------------------------------------------------------
:FULLY-SPECIFIED
:DEGREES
52
root -0.379201 33.041183 0.335017 5.822306 3.340068 0.687361
Spine -6.733129 -6.247174 -0.786716
Head 34.116308 11.625341 4.281261
LeftShoulder -24.648572 45.326959 13.835193
LeftArm 64.169871 -52.140205 -67.109316
LeftForeArm 10.075958 0.000000 -2.074568
LeftHand 5.186596 -0.000000 12.470855
LeftHandThumb1 -26.253704 0.000000 33.147579
RightShoulder -9.522927 -0.193269 -29.762186
RightArm 13.210120 13.318277 40.980556
RightForeArm -16.866554 -0.000000 2.796447
RightHand 5.797796 -0.000000 -9.114234
RightHandThumb1 -24.326973 -0.000000 -32.862282
LeftUpLeg 0.761775 -5.682257 -1.508318
LeftLeg -2.806985 -0.000000 0.000000
LeftFoot -3.518380 5.541032 -18.779557
LeftToeBase -10.467985 -0.000000 0.000000
RightUpLeg 0.751534 1.091827 1.530454
RightLeg -1.838477 -0.000000 0.000000
RightFoot -6.528673 -11.659943 10.588394
RightToeBase -4.589106 -0.000000 0.000000
53
root -0.346983 33.054847 0.315906 6.008666 3.422636 0.939887
Spine -6.699987 -6.292876 -0.955289
Head 34.382353 12.006805 4.543090
LeftShoulder -24.784390 45.450362 13.325738
LeftArm 64.383135 -51.409229 -67.787578
LeftForeArm 10.266974 -0.000000 -2.117531
LeftHand 4.977576 -0.000000 12.051538
LeftHandThumb1 -26.253704 0.000000 33.147579
RightShoulder -9.532572 -0.502093 -29.484758
RightArm 12.967355 13.436284 41.685743
RightForeArm -16.753898 -0.000000 2.837021
RightHand 6.144343 -0.000000 -9.377343
RightHandThumb1 -24.326973 -0.000000 -32.862282
LeftUpLeg 0.456850 -5.805163 -1.757375
LeftLeg -2.648665 -0.000000 0.000000
LeftFoot -3.196773 5.652352 -18.584319
LeftToeBase -11.208697 -0.000000 0.000000
RightUpLeg 0.529660 1.051560 1.184234
RightLeg -1.760791 -0.000000 0.000000
RightFoot -6.635217 -11.500720 10.958403
RightToeBase -4.437151 -0.000000 0.000000
54
root -0.311400 33.071076 0.296697 6.181819 3.504614 1.238458
Spine -6.626292 -6.352189 -1.172862
Head 34.601915 12.457919 4.807310
LeftShoulder -25.039565 45.677207 12.668554
LeftArm 64.550031 -50.604305 -68.277588
LeftForeArm 10.136770 -0.000000 -2.219781
LeftHand 5.093774 -0.000000 11.494477
LeftHandThumb1 -26.253704 0.000000 33.147579
RightShoulder -9.539645 -0.813266 -29.197354
RightArm 12.681101 13.379401 42.394362
RightForeArm -16.508227 -0.000000 2.940555
RightHand 6.389023 -0.000000 -9.438348
RightHandThumb1 -24.326973 -0.000000 -32.862282
LeftUpLeg 0.157304 -5.926347 -2.049154
LeftLeg -2.459074 -0.000000 0.000000
LeftFoot -3.019070 5.500909 -18.835979
LeftToeBase -11.309472 -0.000000 0.000000
RightUpLeg 0.328818 0.986720 0.791258
RightLeg -1.690164 -0.000000 0.000000
RightFoot -6.714556 -11.342597 11.259891
RightToeBase -4.361294 -0.000000 0.000000
55
root -0.272602 33.088397 0.277071 6.364034 3.621541 1.545040
Spine -6.571591 -6.413145 -1.374126
Head 34.822861 12.794162 4.995350
LeftShoulder -25.221547 45.977572 12.010197
LeftArm 64.710104 -49.768340 -68.757616
LeftForeArm 10.192947 -0.000000 -2.307491
LeftHand 5.051513 -0.000000 11.744761
LeftHandThumb1 -26.253704 0.000000 33.147579
RightShoulder -9.543544 -1.140130 -28.946191
RightArm 12.347116 13.403253 43.161423
RightForeArm -16.174265 0.000000 3.038725
RightHand 6.600574 -0.000000 -9.503467
RightHandThumb1 -24.326973 -0.000000 -32.862282
LeftUpLeg -0.158954 -6.084852 -2.343434
LeftLeg -2.261473 -0.000000 0.000000
LeftFoot -2.827952 5.358921 -19.082143
LeftToeBase -11.516434 -0.000000 0.000000
RightUpLeg 0.124814 0.901842 0.395110
RightLeg -1.633672 -0.000000 0.000000
RightFoot -6.725681 -11.225090 11.517109
RightToeBase -4.505693 -0.000000 0.000000
56
root -0.231243 33.106991 0.260106 6.546443 3.781910 1.852862
Spine -6.506428 -6.508644 -1.575119
Head 35.010177 13.106735 5.169650
LeftShoulder -25.679505 46.503765 11.039983
LeftArm 65.275951 -48.892478 -69.346250
LeftForeArm 10.186744 0.000000 -2.431703
LeftHand 4.926474 -0.000000 11.442537
LeftHandThumb1 -26.253704 0.000000 33.147579
RightShoulder -9.550033 -1.434144 -28.667790
RightArm 11.946527 13.467459 43.911476
RightForeArm -15.899559 -0.000000 3.139854
RightHand 6.829746 -0.000000 -9.417128
RightHandThumb1 -24.326973 -0.000000 -32.862282
LeftUpLeg -0.478251 -6.334649 -2.625585
LeftLeg -2.034632 -0.000000 0.000000
LeftFoot -2.745824 5.186975 -19.583510
LeftToeBase -11.353542 -0.000000 0.000000
RightUpLeg -0.063146 0.803204 -0.009170
RightLeg -1.564027 -0.000000 0.000000
RightFoot -6.796950 -11.076975 11.760460
RightToeBase -4.308831 -0.000000 0.000000
57
root -0.188173 33.125617 0.242220 6.695827 3.897094 2.147078
Spine -6.395427 -6.542970 -1.749216
Head 35.172690 13.423579 5.269199
LeftShoulder -25.846760 46.776176 10.332521
LeftArm 65.280775 -47.952405 -69.616558
LeftForeArm 9.865992 -0.000000 -2.458903
LeftHand 4.939601 -0.000000 11.071817
LeftHandThumb1 -26.253704 0.000000 33.147579
RightShoulder -9.542059 -1.924303 -28.404613
RightArm 11.636006 13.842413 44.790143
RightForeArm -15.652432 0.000000 3.283515
RightHand 6.978525 0.000000 -9.311127
RightHandThumb1 -24.326973 -0.000000 -32.862282
LeftUpLeg -0.753427 -6.598967 -2.893197
LeftLeg -1.833698 -0.000000 0.000000
LeftFoot -2.712691 5.023298 -20.194628
LeftToeBase -11.229859 -0.000000 0.000000
RightUpLeg -0.242928 0.700564 -0.390708
RightLeg -1.479736 -0.000000 0.000000
RightFoot -6.863825 -10.971375 12.067281
RightToeBase -4.226256 -0.000000 0.000000
58
root -0.141561 33.146622 0.221137 6.864198 4.105074 2.430226
Spine -6.289678 -6.608122 -1.891941
Head 35.303262 13.653231 5.348669
LeftShoulder -26.084239 47.151883 9.514107
LeftArm 65.475852 -46.939471 -69.937869
LeftForeArm 9.464609 0.000000 -2.484634
LeftHand 5.028880 -0.000000 10.969662
LeftHandThumb1 -26.253704 0.000000 33.147579
RightShoulder -9.555110 -2.335097 -28.126810
RightArm 11.205085 14.222206 45.598069
RightForeArm -15.322205 0.000000 3.373307
RightHand 7.308865 -0.000000 -9.208823
RightHandThumb1 -24.326973 -0.000000 -32.862282
LeftUpLeg -1.087729 -7.029274 -3.131450
LeftLeg -1.564533 -0.000000 0.000000
LeftFoot -2.729864 4.933398 -20.836927
LeftToeBase -11.210936 -0.000000 0.000000
RightUpLeg -0.436651 0.554250 -0.761780
RightLeg -1.397916 -0.000000 0.000000
RightFoot -6.848956 -10.901680 12.263286
RightToeBase -4.270025 -0.000000 0.000000
59
root -0.095530 33.166552 0.200590 7.041527 4.284184 2.727377
Spine -6.186911 -6.653588 -2.050370
Head 35.429243 13.918138 5.413712
LeftShoulder -26.271630 47.467947 8.730931
LeftArm 65.478615 -45.910776 -70.152825
LeftForeArm 9.078819 -0.000000 -2.392258
LeftHand 5.091795 -0.000000 10.833196
LeftHandThumb1 -26.253704 0.000000 33.147579
RightShoulder -9.575332 -2.807618 -27.809980
RightArm 10.862918 14.637982 46.423926
RightForeArm -15.130569 -0.000000 3.481679
RightHand 7.200175 -0.000000 -9.306413
RightHandThumb1 -24.326973 -0.000000 -32.862282
LeftUpLeg -1.398877 -7.492311 -3.367810
LeftLeg -1.371488 -0.000000 0.000000
LeftFoot -2.701221 4.855752 -21.529021
LeftToeBase -11.410513 -0.000000 0.000000
RightUpLeg -0.650669 0.482721 -1.153317
RightLeg -1.274795 -0.000000 0.000000
RightFoot -6.853109 -10.853962 12.387543
RightToeBase -4.324976 -0.000000 0.000000
